<?xml version="1.0" encoding="utf-8"?>
<!-- Generator: Adobe Illustrator 26.2.1, SVG Export Plug-In . SVG Version: 6.00 Build 0)  -->
<svg version="1.1" id="图层_1" xmlns="http://www.w3.org/2000/svg" xmlns:xlink="http://www.w3.org/1999/xlink" x="0px" y="0px"
	 viewBox="0 0 1920 1080" style="enable-background:new 0 0 1920 1080;" xml:space="preserve">
<g>
	<path d="M828.74,575.42V414.23h26.52v137.58h69.37v23.61H828.74z M938.34,493.51c2.62-23.03,22.44-37.31,51.88-37.31
		c31.19,0,49.26,14.87,49.26,42.85v47.22c0,6.12,2.62,7.58,7.58,7.58h4.95v21.57h-13.12c-16.03,0-21.57-7-21.57-18.95
		c-7.87,11.95-19.82,20.11-38.77,20.11c-25.65,0-43.72-12.53-43.72-34.39c0-24.19,17.49-37.6,50.43-37.6H1015v-7
		c0-13.12-9.33-21.28-25.65-21.28c-14.87,0-24.48,7-26.52,17.2L938.34,493.51L938.34,493.51z M984.1,522.95
		c-15.45,0-23.9,5.83-23.9,17.78c0,9.91,8.16,16.91,21.86,16.91c20.7,0,32.65-12.24,32.94-30.31v-4.08h-30.9V522.95z M1049.1,457.66
		h26.52l32.94,89.48l32.06-89.48h26.52l-53.34,136.12c-7.29,19.24-12.53,27.69-29.73,27.69h-26.82v-21.86h17.49
		c9.62,0,11.95-2.33,15.74-11.95l4.66-11.37L1049.1,457.66z M1230.11,576.88c-37.02,0-60.34-23.9-60.34-60.04
		c0-36.43,23.32-60.63,58-60.63c34.1,0,56.84,21.57,57.42,56.26c0,2.91-0.29,6.12-0.58,9.33h-88.9v1.75
		c0.58,20.11,13.41,33.23,32.94,33.23c15.16,0,26.23-7.58,29.73-20.7h24.78C1279.08,559.1,1259.26,576.88,1230.11,576.88z
		 M1259.55,503.72c-2.04-17.49-14.28-27.4-31.48-27.4c-15.74,0-29.44,10.49-31.19,27.4H1259.55z M1305.31,457.66h22.15l2.62,17.78
		c6.12-9.91,15.45-17.78,34.69-17.78h5.54v23.32h-11.08c-22.15,0-29.15,17.2-29.15,35.56v59.17h-24.78V457.66z"/>
	<g>
		<path d="M699.48,441.59c0,7.24-0.08,14.47,0.03,21.7c0.06,3.71-1.57,5.2-5.22,5.18c-14.6-0.07-29.2-0.07-43.8,0.01
			c-3.73,0.02-5.18-1.68-5.17-5.28c0.06-14.47,0-28.94,0.04-43.41c0.01-4.21,1.2-5.38,5.42-5.38c14.47-0.03,28.94-0.03,43.41,0
			c4.2,0.01,5.26,1.15,5.28,5.47C699.51,427.12,699.48,434.36,699.48,441.59z"/>
		<path d="M592.12,441.64c-0.01,7.23-0.07,14.46,0.02,21.7c0.05,3.66-1.49,5.18-5.21,5.15c-14.59-0.11-29.19-0.09-43.79-0.01
			c-3.52,0.02-5.11-1.56-5.12-4.94c-0.01-14.73,0.01-29.45-0.01-44.18c0-3.47,1.69-4.98,5.11-4.97c14.6,0.04,29.19,0.05,43.79-0.01
			c3.63-0.02,5.3,1.47,5.24,5.18C592.05,426.92,592.12,434.28,592.12,441.64z"/>
		<path d="M592.12,548.9c0,7.23-0.08,14.46,0.03,21.69c0.06,3.69-1.56,5.28-5.18,5.27c-14.59-0.04-29.18-0.04-43.77-0.01
			c-3.66,0.01-5.21-1.81-5.2-5.37c0.04-14.46-0.01-28.92,0.04-43.38c0.01-4.26,1.08-5.24,5.46-5.25c14.46-0.02,28.92-0.03,43.38,0
			c4.49,0.01,5.21,0.76,5.23,5.35C592.15,534.44,592.12,541.67,592.12,548.9z"/>
		<path d="M672.67,521.85c7.23,0,14.47,0.11,21.69-0.04c3.76-0.08,5.17,1.56,5.15,5.19c-0.08,14.59-0.07,29.19-0.01,43.78
			c0.01,3.48-1.56,5.07-4.99,5.06c-14.73-0.02-29.45-0.01-44.18-0.01c-3.43,0-5.01-1.68-5-5.11c0.03-14.59,0.05-29.19,0-43.78
			c-0.01-3.66,1.56-5.21,5.25-5.15C657.95,521.94,665.31,521.85,672.67,521.85z"/>
		<path d="M618.69,521.42c-7.37-0.01-14.75-0.11-22.12,0.04c-3.47,0.07-4.78-1.6-4.78-4.75c-0.01-14.48,0-28.97,0.01-43.45
			c0-3.6,1.77-5.19,5.39-5.18c14.48,0.06,28.97,0.06,43.45,0.01c3.72-0.01,5.12,1.73,5.1,5.35c-0.08,14.35-0.08,28.7-0.01,43.05
			c0.02,3.47-1.32,5.04-4.92,4.98C633.43,521.34,626.06,521.43,618.69,521.42z"/>
		<path d="M745.37,441.59c0-7.24,0.03-14.47-0.01-21.71c-0.02-4.33-1.08-5.46-5.28-5.47c-1.39,0-2.79,0-4.18-0.01v54.06
			c1.43,0.01,2.85,0,4.28,0.01c3.65,0.02,5.28-1.47,5.22-5.18C745.29,456.07,745.37,448.83,745.37,441.59z"/>
		<path d="M727.05,441.59c0-7.24,0.03-14.47-0.01-21.71c-0.02-4.33-1.08-5.46-5.28-5.47c-1.39,0-11.78,0-13.17-0.01v54.06
			c1.43,0.01,11.85,0,13.27,0.01c3.65,0.02,5.28-1.47,5.22-5.18C726.97,456.07,727.05,448.83,727.05,441.59z"/>
		<path d="M745.37,548.65c0-7.24,0.03-14.47-0.01-21.71c-0.02-4.33-1.08-5.46-5.28-5.47c-1.39,0-2.79,0-4.18-0.01v54.06
			c1.43,0.01,2.85,0,4.28,0.01c3.65,0.02,5.28-1.47,5.22-5.18C745.29,563.12,745.37,555.89,745.37,548.65z"/>
		<path d="M727.05,548.65c0-7.24,0.03-14.47-0.01-21.71c-0.02-4.33-1.08-5.46-5.28-5.47c-1.39,0-11.78,0-13.17-0.01v54.06
			c1.43,0.01,11.85,0,13.27,0.01c3.65,0.02,5.28-1.47,5.22-5.18C726.97,563.12,727.05,555.89,727.05,548.65z"/>
	</g>
</g>
</svg>
